<?xml version="1.0" encoding="UTF-8"?>
<svg xmlns="http://www.w3.org/2000/svg" xmlns:xlink="http://www.w3.org/1999/xlink" viewBox="0 0 32 32" width="32px" height="32px">
<g id="surface6038446">
<path style=" stroke:none;fill-rule:nonzero;fill:#FFFFFF;fill-opacity:1;" d="M 16 16.160156 C 15.910156 16.160156 15.839844 16.089844 15.839844 16 C 15.839844 15.910156 15.910156 15.839844 16 15.839844 C 16.089844 15.839844 16.160156 15.910156 16.160156 16 C 16.160156 16.089844 16.089844 16.160156 16 16.160156 Z M 16 16.160156 "/>
<path style=" stroke:none;fill-rule:nonzero;fill:#FFFFFF;fill-opacity:1;" d="M 8.800781 7.199219 C 7.925781 7.199219 7.199219 7.925781 7.199219 8.800781 L 7.199219 23.199219 C 7.199219 24.074219 7.925781 24.800781 8.800781 24.800781 L 23.199219 24.800781 C 24.074219 24.800781 24.800781 24.074219 24.800781 23.199219 L 24.800781 8.800781 C 24.800781 7.925781 24.074219 7.199219 23.199219 7.199219 Z M 8.800781 8.800781 L 23.199219 8.800781 L 23.199219 23.199219 L 19.050781 23.199219 L 19.050781 17.800781 L 21.125 17.800781 L 21.425781 15.398438 L 19.050781 15.398438 L 19.050781 13.851562 C 19.050781 13.148438 19.222656 12.675781 20.226562 12.675781 L 21.523438 12.675781 L 21.523438 10.5 C 21.304688 10.472656 20.535156 10.425781 19.648438 10.425781 C 17.804688 10.425781 16.550781 11.535156 16.550781 13.601562 L 16.550781 15.398438 L 14.449219 15.398438 L 14.449219 17.800781 L 16.550781 17.800781 L 16.550781 23.199219 L 8.800781 23.199219 Z M 8.800781 8.800781 "/>
</g>
</svg>
