<?xml version="1.0" encoding="UTF-8"?>
<svg xmlns="http://www.w3.org/2000/svg" xmlns:xlink="http://www.w3.org/1999/xlink" viewBox="0 0 48 48" width="48px" height="48px">
<g id="surface6047752">
<path style=" stroke:none;fill-rule:nonzero;fill:#FFFFFF;fill-opacity:1;" d="M 24 24.238281 C 23.867188 24.238281 23.761719 24.132812 23.761719 24 C 23.761719 23.867188 23.867188 23.761719 24 23.761719 C 24.132812 23.761719 24.238281 23.867188 24.238281 24 C 24.238281 24.132812 24.132812 24.238281 24 24.238281 Z M 24 24.238281 "/>
<path style=" stroke:none;fill-rule:nonzero;fill:#FFFFFF;fill-opacity:1;" d="M 24 14.851562 C 14.816406 14.851562 13.589844 14.945312 12.414062 16.15625 C 11.234375 17.367188 11.082031 19.292969 11.082031 24 C 11.082031 28.707031 11.234375 30.632812 12.414062 31.84375 C 13.589844 33.054688 14.816406 33.148438 24 33.148438 C 33.183594 33.148438 34.410156 33.054688 35.585938 31.84375 C 36.765625 30.632812 36.917969 28.707031 36.917969 24 C 36.917969 19.292969 36.765625 17.367188 35.585938 16.15625 C 34.410156 14.945312 33.183594 14.851562 24 14.851562 Z M 24 17.003906 C 31.519531 17.003906 33.355469 17.035156 33.976562 17.667969 C 34.597656 18.296875 34.765625 19.984375 34.765625 24 C 34.765625 28.015625 34.597656 29.703125 33.976562 30.332031 C 33.355469 30.964844 31.519531 30.996094 24 30.996094 C 16.480469 30.996094 14.644531 30.964844 14.023438 30.332031 C 13.402344 29.703125 13.253906 28.015625 13.253906 24 C 13.253906 19.984375 13.402344 18.296875 14.023438 17.667969 C 14.644531 17.035156 16.480469 17.003906 24 17.003906 Z M 21.820312 20.242188 L 21.820312 27.757812 L 28.355469 23.96875 Z M 21.820312 20.242188 "/>
</g>
</svg>
