<?xml version="1.0" encoding="UTF-8"?>
<svg xmlns="http://www.w3.org/2000/svg" xmlns:xlink="http://www.w3.org/1999/xlink" viewBox="0 0 50 50" width="50px" height="50px">
<g id="surface6052953">
<path style=" stroke:none;fill-rule:nonzero;fill:rgb(80.000001%,80.000001%,80.000001%);fill-opacity:1;" d="M 25 25.25 C 24.863281 25.25 24.75 25.136719 24.75 25 C 24.75 24.863281 24.863281 24.75 25 24.75 C 25.136719 24.75 25.25 24.863281 25.25 25 C 25.25 25.136719 25.136719 25.25 25 25.25 Z M 25 25.25 "/>
<path style=" stroke:none;fill-rule:nonzero;fill:rgb(0%,0%,0%);fill-opacity:1;" d="M 31.972656 10.472656 C 27.449219 10.472656 23.773438 14.148438 23.773438 18.671875 C 23.773438 18.941406 23.839844 19.207031 23.867188 19.472656 C 18.277344 18.941406 13.332031 16.246094 9.972656 12.125 C 9.816406 11.925781 9.574219 11.820312 9.320312 11.839844 C 9.070312 11.855469 8.84375 12 8.71875 12.21875 C 8.015625 13.433594 7.609375 14.832031 7.609375 16.332031 C 7.609375 18.148438 8.257812 19.8125 9.261719 21.175781 C 9.070312 21.089844 8.855469 21.042969 8.671875 20.9375 C 8.4375 20.816406 8.160156 20.820312 7.929688 20.957031 C 7.703125 21.09375 7.566406 21.339844 7.5625 21.601562 L 7.5625 21.695312 C 7.5625 24.480469 9.003906 26.898438 11.128906 28.382812 C 11.105469 28.378906 11.082031 28.390625 11.058594 28.382812 C 10.800781 28.339844 10.535156 28.429688 10.363281 28.628906 C 10.1875 28.824219 10.132812 29.101562 10.207031 29.351562 C 11.054688 31.976562 13.210938 33.984375 15.878906 34.714844 C 13.753906 35.980469 11.285156 36.722656 8.625 36.722656 C 8.050781 36.722656 7.496094 36.695312 6.949219 36.628906 C 6.59375 36.582031 6.253906 36.789062 6.136719 37.125 C 6.015625 37.460938 6.148438 37.835938 6.453125 38.023438 C 9.863281 40.210938 13.914062 41.496094 18.265625 41.496094 C 25.324219 41.496094 30.859375 38.550781 34.570312 34.335938 C 38.285156 30.125 40.21875 24.65625 40.21875 19.546875 C 40.21875 19.328125 40.199219 19.121094 40.195312 18.90625 C 41.582031 17.847656 42.816406 16.601562 43.785156 15.148438 C 43.980469 14.871094 43.957031 14.496094 43.738281 14.234375 C 43.519531 13.972656 43.148438 13.894531 42.839844 14.039062 C 42.453125 14.214844 41.996094 14.230469 41.589844 14.371094 C 42.128906 13.652344 42.585938 12.878906 42.867188 12.007812 C 42.960938 11.707031 42.855469 11.382812 42.613281 11.1875 C 42.367188 10.992188 42.023438 10.96875 41.753906 11.132812 C 40.464844 11.898438 39.035156 12.433594 37.523438 12.761719 C 36.058594 11.394531 34.132812 10.472656 31.972656 10.472656 Z M 31.972656 11.984375 C 33.902344 11.984375 35.644531 12.808594 36.863281 14.109375 C 37.046875 14.300781 37.316406 14.378906 37.574219 14.324219 C 38.558594 14.128906 39.496094 13.839844 40.40625 13.472656 C 39.882812 14.179688 39.230469 14.785156 38.46875 15.246094 C 38.125 15.414062 37.960938 15.8125 38.089844 16.175781 C 38.214844 16.535156 38.589844 16.746094 38.964844 16.664062 C 39.722656 16.570312 40.394531 16.261719 41.117188 16.070312 C 40.46875 16.773438 39.761719 17.402344 38.988281 17.960938 C 38.78125 18.117188 38.664062 18.363281 38.683594 18.625 C 38.695312 18.929688 38.707031 19.234375 38.707031 19.546875 C 38.707031 24.269531 36.894531 29.402344 33.4375 33.320312 C 29.980469 37.242188 24.90625 39.984375 18.265625 39.984375 C 15.25 39.984375 12.402344 39.316406 9.832031 38.140625 C 13.019531 37.898438 15.960938 36.769531 18.335938 34.90625 C 18.585938 34.707031 18.683594 34.375 18.582031 34.074219 C 18.480469 33.773438 18.203125 33.566406 17.886719 33.558594 C 15.394531 33.511719 13.308594 32.0625 12.195312 30.011719 C 12.234375 30.011719 12.269531 30.011719 12.3125 30.011719 C 13.058594 30.011719 13.796875 29.917969 14.484375 29.730469 C 14.816406 29.632812 15.042969 29.324219 15.03125 28.980469 C 15.019531 28.632812 14.773438 28.339844 14.4375 28.265625 C 11.746094 27.722656 9.730469 25.53125 9.261719 22.804688 C 10.027344 23.070312 10.804688 23.277344 11.648438 23.300781 C 11.996094 23.324219 12.308594 23.105469 12.414062 22.78125 C 12.523438 22.453125 12.390625 22.089844 12.097656 21.90625 C 10.304688 20.707031 9.121094 18.660156 9.121094 16.332031 C 9.121094 15.46875 9.347656 14.675781 9.640625 13.921875 C 13.421875 18.070312 18.714844 20.828125 24.695312 21.128906 C 24.929688 21.140625 25.160156 21.042969 25.3125 20.863281 C 25.46875 20.679688 25.527344 20.4375 25.472656 20.207031 C 25.359375 19.714844 25.285156 19.195312 25.285156 18.671875 C 25.285156 14.96875 28.269531 11.984375 31.972656 11.984375 Z M 31.972656 11.984375 "/>
</g>
</svg>
